<?xml version="1.0" encoding="UTF-8"?>
<!-- Uploaded to: SVG Repo, www.svgrepo.com, Generator: SVG Repo Mixer Tools -->
<svg role="img" viewBox="0 0 24 24" xmlns="http://www.w3.org/2000/svg">
    <title>Java</title>
    <path fill="currentColor"
        d="M8.851 18.56s-.917.534.653.714c1.902.218 2.874.187 4.969-.211 0 0 .552.346 1.321.646-4.699 2.013-10.633-.118-6.943-1.149M8.276 15.933s-1.028.761.542.924c2.032.209 3.636.227 6.413-.308 0 0 .384.389.987.602-5.679 1.661-12.007.13-7.942-1.218M13.116 11.475c1.158 1.333-.304 2.533-.304 2.533s2.939-1.518 1.589-3.418c-1.261-1.772-2.228-2.652 3.007-5.688 0-.001-8.216 2.051-4.292 6.573M19.33 20.504s.679.559-.747.991c-2.712.822-11.288 1.069-13.669.033-.856-.373.75-.89 1.254-.998.527-.114.828-.93.828-.93-1.332-1.003-7.534 1.866-3.638 2.686 10.625 2.235 19.372-.94 15.972-1.782M9.292 13.21s-5.334 1.267-1.888 1.728c1.45.278 4.338.215 7.037-.053 2.204-.221 4.413-.691 4.413-.691s-.797.341-1.322.736c-5.617 1.477-16.43.788-13.307-.593 2.642-1.143 5.067-1.127 5.067-1.127M17.127 17.208c5.509-2.866 2.96-5.613 1.184-5.244-.403.107-.713.214-.713.214s.156-.273.481-.375c3.416-1.209 6.371 3.651-1.259 5.633 0 0 .063-.057.307-.228M14.401 0s3.25 3.251-3.074 8.254c-5.086 4.009-1.23 6.259-.002 8.851-3.12-2.815-5.427-5.295-3.842-7.605 2.318-3.36 8.819-5.02 6.918-9.5M9.734 23.924c5.145.324 13.13-.179 13.309-2.599 0 0-.346.971-4.278 1.747-4.318.846-9.63.76-12.759.22 0 0 .994.777 3.728.632" />
</svg>